<svg xmlns="http://www.w3.org/2000/svg" width="56" height="56" viewBox="0 0 56 56" fill="none"><path d="M55.2995 54.6011H54.0725V16.4088C54.0725 16.0221 53.7595 15.7086 53.3723 15.7086L30.91 15.7091C30.5232 15.7091 30.2098 16.0221 30.2098 16.4093V54.6003H25.7899V17.1781C25.7899 10.8661 20.7992 5.71228 14.5585 5.41891V0.700195C14.5585 0.313473 14.2455 0 13.8583 0C13.4716 0 13.1581 0.312985 13.1581 0.700195V5.39104L2.62694 5.39055C2.24022 5.39055 1.92675 5.70353 1.92675 6.09074L1.92724 54.5991H0.700196C0.313474 54.5991 0 54.9121 0 55.2993C0 55.6861 0.312986 55.9995 0.700196 55.9995H55.2998C55.6865 55.9995 56 55.6865 56 55.2993C55.9995 54.9121 55.6865 54.5991 55.2993 54.5991L55.2995 54.6011ZM31.6097 17.1101H52.6721V54.6011H48.2815V47.0616C48.2815 46.6749 47.9685 46.3614 47.5813 46.3614L36.6995 46.3619C36.3128 46.3619 35.9993 46.6749 35.9993 47.0621V54.6011H31.6092L31.6097 17.1101ZM46.8821 54.6011H37.3998V47.7617H46.8816L46.8821 54.6011ZM24.3898 29.8987H14.5583V19.0458H24.3898V29.8987ZM13.1583 29.8987H3.32691V19.0458H13.1583V29.8987ZM3.32691 31.2991H13.1583V42.1525L3.32691 42.152V31.2991ZM14.5583 31.2991H24.3898V42.1525L14.5583 42.152V31.2991ZM24.3898 43.5524V54.6012H14.5583V43.5524H24.3898ZM24.3898 17.1801V17.6464L14.5583 17.6459V6.82074C20.027 7.11223 24.3898 11.6396 24.3898 17.18V17.1801ZM13.1583 6.79291V17.6463L3.32691 17.6458V6.79292L13.1583 6.79291ZM3.32691 43.5526H13.1583V54.6014H3.32691V43.5526Z" fill="#1A73E9"/><path d="M36.7002 40.1016C37.0869 40.1016 37.4004 39.7886 37.4004 39.4014V35.1338C37.4004 34.7471 37.0874 34.4336 36.7002 34.4336C36.3135 34.4336 36 34.7466 36 35.1338V39.4014C36 39.7886 36.313 40.1016 36.7002 40.1016Z" fill="#1A73E9"/><path d="M42.1406 40.1016C42.5273 40.1016 42.8408 39.7886 42.8408 39.4014V35.1338C42.8408 34.7471 42.5278 34.4336 42.1406 34.4336C41.7539 34.4336 41.4404 34.7466 41.4404 35.1338V39.4014C41.4404 39.7886 41.7534 40.1016 42.1406 40.1016Z" fill="#1A73E9"/><path d="M47.583 40.1016C47.9697 40.1016 48.2832 39.7886 48.2832 39.4014V35.1338C48.2832 34.7471 47.9702 34.4336 47.583 34.4336C47.1963 34.4336 46.8828 34.7466 46.8828 35.1338V39.4014C46.8833 39.7886 47.1963 40.1016 47.583 40.1016Z" fill="#1A73E9"/><path d="M36.7007 28.461C37.0874 28.461 37.4009 28.148 37.4009 27.7608L37.4004 23.4932C37.4004 23.1064 37.0874 22.793 36.7002 22.793C36.3135 22.793 36 23.106 36 23.4932V27.7608C36.0005 28.148 36.3135 28.461 36.7007 28.461V28.461Z" fill="#1A73E9"/><path d="M42.1401 28.461C42.5269 28.461 42.8403 28.148 42.8403 27.7608L42.8398 23.4932C42.8398 23.1064 42.5269 22.793 42.1396 22.793C41.7529 22.793 41.4395 23.106 41.4395 23.4932V27.7608C41.4399 28.148 41.7529 28.461 42.1401 28.461V28.461Z" fill="#1A73E9"/><path d="M47.583 28.461C47.9697 28.461 48.2832 28.148 48.2832 27.7608V23.4932C48.2832 23.1064 47.9702 22.793 47.583 22.793C47.1963 22.793 46.8828 23.106 46.8828 23.4932V27.7608C46.8833 28.148 47.1963 28.461 47.583 28.461Z" fill="#1A73E9"/></svg>